<?xml version="1.0" encoding="utf-8"?>
<!-- Generator: Adobe Illustrator 21.0.0, SVG Export Plug-In . SVG Version: 6.00 Build 0)  -->
<svg version="1.1" id="Layer_1" xmlns="http://www.w3.org/2000/svg" xmlns:xlink="http://www.w3.org/1999/xlink" x="0px" y="0px"
	 viewBox="0 0 1167.7 527.5" style="enable-background:new 0 0 1167.7 527.5;" xml:space="preserve">
<rect style="fill-rule:evenodd;clip-rule:evenodd;fill:#0B0F10;" width="1167.7" height="527.5"/>
<path style="fill-rule:evenodd;clip-rule:evenodd;fill:#E31E24;" d="M232,281.5h18.3v34.7H232V281.5z M232,212.1h18.3v34.7h-8.4H232
	V212.1z M205.9,281.5v34.7h18.3v-34.7h-8.9H205.9z M205.9,212.1v34.7h18.3v-34.7H205.9z M170.9,246.8v-34.7H198v34.7h-17.5H170.9z
	 M285.3,281.5v34.7h-27.1v-34.7h18.5H285.3z M198,129.2h7.8v48.2h18.3V156h7.8v21.4h18.3v-48.2h7.8v48.2h32.2
	c19.2,0,34.7,15.5,34.7,34.7v7.5l-39.7,7.8v-15.4h-27.1v34.7h32.2c19.2,0,34.7,15.5,34.7,34.7v34.7c0,19.2-15.5,34.7-34.7,34.7
	h-32.2v48.2h-7.8v-48.2H232v21.4h-7.8v-21.4h-18.3v48.2H198v-48.2h-40.8c-19.2,0-34.7-15.5-34.7-34.7v-7.5l39.7-7.8v15.4H198v-34.7
	h-32.2c-19.2,0-34.7-15.5-34.7-34.7v0v-34.7c0-19.2,15.5-34.7,34.7-34.7H198V129.2z"/>
<path style="fill:#FEFEFE;" d="M1038.8,283.3v-36.9c0-22.3-4.9-39.4-14.8-51.4c-9.9-11.1-23.4-16.7-40.7-16.7h-47.3
	c-8,0-15.6,1.4-22.7,4.1c-7.2,2.7-13.1,6.9-18,12.6c-5.5,6.3-9,13.1-10.7,20.3c-1.7,7.3-3.2,16.6-3.2,27.9v175.1
	c0,1.9,0.7,2.8,2.2,2.8h17.7c2.1,0,3.2-0.9,3.2-2.8v-77.6c7.6,6.9,18.1,10.4,31.5,10.4h47.3c17,0,30.5-5.7,40.5-17
	C1033.8,322.8,1038.8,305.9,1038.8,283.3 M759.7,249c1.9,0,2.8-1.1,2.8-3.2c0-22.1-5-39-15.1-50.8c-9.9-11.1-23.2-16.7-40.1-16.7
	H649c-6.7,0-13.6,2.5-20.5,7.4c-6.9,4.9-12.5,12-16.7,21.3c-0.2,0.2-0.3,0.5-0.3,0.9c-0.2,0.2-0.3,0.4-0.3,0.6
	c-1.1,2.3-2.3,6.6-3.8,12.8c-1.5,6.2-2.2,14.2-2.2,24.1v100.9c0,1.9,0.7,2.8,2.2,2.8H625c2.1,0,3.2-0.9,3.2-2.8V245.8
	c0-13.9,2.7-24.3,8.2-31.2c5.5-6.9,14.1-10.4,25.9-10.4h43.5c22.5,0,33.8,13.9,33.8,41.6c0,2.1,0.8,3.2,2.5,3.2H759.7z M557.3,360
	V236c-0.4-10.7-2.2-19.8-5.2-27.1c-3.1-7.4-7-13.3-12-17.8c-4.9-4.5-10.6-7.8-17-9.8c-6.4-2-13.3-3-20.7-3h-51.1
	c-34.9,0-52.4,22.9-52.4,68.8v38.8c0,43.1,18.1,64.7,54.3,64.7H503c14.5,0,24.9-3.8,31.2-11.4v20.2c0,24-10.8,36-32.5,36h-45.4
	c-3.6,0-6.9-0.4-9.9-1.3c-3.1-0.8-5.7-1.9-8-3.2h0.3c-6.1-3.4-9.1-8.9-9.1-16.7c0-1.9-0.8-2.8-2.5-2.8h-19.2c-1.9,0-2.8,0.9-2.8,2.8
	c0,8,1.4,15.1,4.3,21.3c2.8,6.2,7,11.4,12.5,15.6c9,6.7,20,10.1,32.8,10.1H503c16.8,0,29.9-4.1,39.1-12.3
	c5.3-4.8,9.1-11.4,11.5-19.6C556,381.1,557.3,371.4,557.3,360z M534.9,282.7c0,13.9-3.3,24.3-9.8,31.4c-6.5,7-15,10.6-25.6,10.6
	h-40.4c-24.6,0-36.9-14-36.9-42v-33.4c0-8.6,0.9-15.9,2.7-21.9c1.8-6,4.2-10.8,7.1-14.4c5.3-5.9,14.3-8.8,27.1-8.8h40.4
	c23.6,0,35.3,15.6,35.3,46.7V282.7z M1015.7,283.3c0,28-11.3,42-33.8,42h-44.2c-11.8,0-20.4-3.4-25.9-10.3
	c-5.5-6.8-8.2-17.4-8.2-31.7v-36.9c0-13.9,2.7-24.3,8.2-31.2c5.5-6.9,14.1-10.4,25.9-10.4H982c22.5,0,33.8,13.9,33.8,41.6V283.3z"/>
<path style="fill-rule:evenodd;clip-rule:evenodd;fill:#E31E24;" d="M810.4,269.7v19.1v58.9c0,1.9,0.7,2.8,2.2,2.8h17.7
	c2.1,0,3.2-0.9,3.2-2.8v-58.9v-19.1v-87.3c0-1.9-1.1-2.8-3.2-2.8h-17.7c-1.5,0-2.2,0.9-2.2,2.8V269.7z"/>
<path style="fill-rule:evenodd;clip-rule:evenodd;fill:#E31E24;" d="M810.4,138.2c0,1.9,0.7,2.8,2.2,2.8h17.7c2.1,0,3.2-0.9,3.2-2.8
	c0-55.1,0,30.8,0-24.3c0-1.9-1.1-2.8-3.2-2.8h-17.7c-1.4,0-2.2,0.9-2.2,2.8C810.4,169,810.4,83.1,810.4,138.2"/>
<path style="fill-rule:evenodd;clip-rule:evenodd;fill:#FEFEFE;" d="M853.1,128.9h185.6v9.1H853.1V128.9z M398.9,128.9h391.9v9.1
	H398.9V128.9z"/>
<path style="fill:#FEFEFE;" d="M1066.8,91.6h6.1c2.9,0,4.9-0.4,6-1.3c1.1-0.9,1.6-2,1.6-3.4c0-0.9-0.3-1.8-0.8-2.5
	c-0.5-0.7-1.2-1.3-2.1-1.6c-0.9-0.4-2.6-0.5-5.1-0.5h-5.8V91.6z M1061.8,109.2V78h10.8c3.7,0,6.3,0.3,8,0.9c1.7,0.6,3,1.6,3.9,3
	c1,1.4,1.5,3,1.5,4.6c0,2.3-0.8,4.3-2.5,6c-1.6,1.7-3.8,2.6-6.5,2.9c1.1,0.5,2,1,2.7,1.7c1.3,1.2,2.8,3.3,4.6,6.2l3.8,6.1h-6.1
	l-2.8-4.9c-2.2-3.9-4-6.3-5.3-7.3c-0.9-0.7-2.3-1.1-4-1.1h-3v13.3H1061.8z M1074.6,68.9c-4.1,0-8.1,1.1-12,3.1
	c-3.9,2.1-6.9,5.1-9.1,9c-2.2,3.9-3.3,8-3.3,12.2c0,4.2,1.1,8.2,3.2,12.1c2.1,3.8,5.1,6.8,9,9c3.9,2.1,7.9,3.2,12.1,3.2
	c4.2,0,8.2-1.1,12.1-3.2c3.9-2.1,6.9-5.1,9-9c2.1-3.8,3.2-7.9,3.2-12.1c0-4.2-1.1-8.3-3.3-12.2c-2.2-3.9-5.2-6.9-9.1-9
	C1082.6,69.9,1078.6,68.9,1074.6,68.9z M1074.6,64.1c4.9,0,9.6,1.3,14.3,3.8c4.6,2.5,8.3,6.1,10.9,10.8c2.6,4.7,3.9,9.5,3.9,14.6
	c0,5-1.3,9.8-3.8,14.5c-2.6,4.6-6.1,8.2-10.8,10.8c-4.6,2.6-9.5,3.8-14.5,3.8c-5,0-9.9-1.3-14.5-3.8c-4.6-2.6-8.2-6.1-10.8-10.8
	c-2.6-4.6-3.9-9.4-3.9-14.5c0-5.1,1.3-9.9,3.9-14.6c2.6-4.7,6.3-8.3,10.9-10.8C1064.9,65.3,1069.7,64.1,1074.6,64.1z"/>
</svg>
